Coordinates
version=1
nRows=16
nColumns=63
inDegrees=yes

Units are S.I. units (second, meters, Newtons, ...)
If the header above contains a line with 'inDegrees', this indicates whether rotational values are in degrees (yes) or radians (no).

endheader
time	pelvis_tilt	pelvis_list	pelvis_rotation	pelvis_tx	pelvis_ty	pelvis_tz	hip_flexion_r	hip_adduction_r	hip_rotation_r	knee_angle_r	knee_angle_r_beta	ankle_angle_r	subtalar_angle_r	mtp_angle_r	hip_flexion_l	hip_adduction_l	hip_rotation_l	knee_angle_l	knee_angle_l_beta	ankle_angle_l	subtalar_angle_l	mtp_angle_l	L5_S1_Flex_Ext	L5_S1_Lat_Bending	L5_S1_axial_rotation	L4_L5_Flex_Ext	L4_L5_Lat_Bending	L4_L5_axial_rotation	L3_L4_Flex_Ext	L3_L4_Lat_Bending	L3_L4_axial_rotation	L2_L3_Flex_Ext	L2_L3_Lat_Bending	L2_L3_axial_rotation	L1_L2_Flex_Ext	L1_L2_Lat_Bending	L1_L2_axial_rotation	L1_T12_Flex_Ext	L1_T12_Lat_Bending	L1_T12_axial_rotation	Abs_r3	Abs_r2	Abs_r1	Abs_t1	Abs_t2	neck_flexion	neck_bending	neck_rotation	arm_flex_r	arm_add_r	arm_rot_r	elbow_flex_r	pro_sup_r	wrist_flex_r	wrist_dev_r	arm_flex_l	arm_add_l	arm_rot_l	elbow_flex_l	pro_sup_l	wrist_flex_l	wrist_dev_l
1.204545	-8.648126	-20.246084	81.038413	0.295140	0.807790	0.598831	32.369113	-6.748451	11.954971	22.840815	0.398647	31.567855	-7.447122	0.000000	22.126346	7.648660	5.936256	5.642121	0.098474	24.926398	-13.251356	0.000000	0.269013	0.751784	-1.675343	0.499585	0.999873	-1.780052	0.441962	1.827889	-1.780052	0.307455	1.827889	-1.465925	0.249806	1.533039	-1.361216	0.153714	1.164514	-1.256508	1.921535	8.504336	-9.317757	0.000000	0.000000	26.790107	-9.659801	20.546995	39.289910	-13.703998	-11.027975	54.485057	81.127096	-13.213709	15.198014	22.906940	-1.415581	33.774327	92.053786	84.031314	-18.504887	10.453302
1.227273	-8.613375	-19.081239	80.579254	0.298896	0.811519	0.597119	30.808082	-6.537343	12.404017	22.021463	0.384347	31.391359	-7.157635	0.000000	20.594278	7.411795	5.482285	5.176875	0.090354	24.775357	-12.959309	0.000000	0.219361	0.646943	-1.565789	0.407375	0.860434	-1.663651	0.360388	1.572977	-1.663651	0.250708	1.572977	-1.370065	0.203699	1.319246	-1.272204	0.125343	1.002115	-1.174342	1.566873	7.318349	-8.708448	0.000000	0.000000	26.541256	-10.032079	18.681757	41.037617	-12.824901	-13.022336	59.490817	82.813517	-13.764162	18.274388	24.608117	-2.398551	33.794338	96.545560	85.493495	-17.872103	11.766856
1.250000	-8.486935	-17.828730	80.151223	0.302618	0.815311	0.595162	29.117128	-6.284294	12.861997	21.204253	0.370084	31.226023	-6.867957	0.000000	18.979351	7.133821	4.933935	4.806611	0.083891	24.704697	-12.579702	0.000000	0.168569	0.545867	-1.432375	0.313049	0.726004	-1.521898	0.276941	1.327222	-1.521898	0.192657	1.327222	-1.253328	0.156533	1.113133	-1.163805	0.096320	0.845549	-1.074281	1.204068	6.174961	-7.966439	0.000000	0.000000	26.334325	-10.544434	16.655404	42.886638	-12.084911	-14.013201	64.301833	82.387710	-14.654845	20.825340	26.466522	-3.254752	33.695891	100.844001	86.963706	-16.418325	13.069369
1.272727	-8.256389	-16.532156	79.772432	0.306261	0.819123	0.592970	27.322060	-5.982118	13.300687	20.380705	0.355710	31.035735	-6.589234	0.000000	17.333094	6.804439	4.271582	4.548995	0.079395	24.715124	-12.094390	0.000000	0.118948	0.453033	-1.293232	0.220899	0.602534	-1.374059	0.195420	1.101504	-1.374059	0.135946	1.101504	-1.131578	0.110455	0.923824	-1.050751	0.067967	0.701748	-0.969924	0.849636	5.124797	-7.192571	0.000000	0.000000	26.074311	-11.115942	14.575783	44.843528	-11.544346	-13.658154	68.753348	80.413897	-15.764442	22.755912	28.406052	-3.983592	33.443636	104.907669	88.006039	-14.463332	14.250774
1.295455	-7.904960	-15.231926	79.474200	0.309760	0.822914	0.590552	25.447403	-5.624432	13.667997	19.544310	0.341113	30.789297	-6.328484	0.000000	15.702644	6.406217	3.453606	4.416748	0.077087	24.834508	-11.412899	0.000000	0.073540	0.373145	-1.166704	0.136571	0.496282	-1.239623	0.120819	0.907264	-1.239623	0.084049	0.907264	-1.020866	0.068289	0.760916	-0.947947	0.042021	0.578001	-0.875028	0.525289	4.221086	-6.488860	0.000000	0.000000	25.678192	-11.647886	12.579553	46.763744	-11.192952	-12.580174	72.851635	78.091821	-16.955314	24.123536	30.375135	-4.629649	33.163003	108.720999	87.965623	-12.343804	15.235062
1.318182	-7.437925	-13.955996	79.272145	0.313050	0.826629	0.587897	23.520536	-5.216191	13.938905	18.702118	0.326414	30.470815	-6.107646	0.000000	14.107870	5.945627	2.565338	4.391425	0.076645	25.032645	-10.624300	0.000000	0.035777	0.306864	-1.061700	0.066441	0.408130	-1.128057	0.058778	0.746110	-1.128057	0.040889	0.746110	-0.928988	0.033222	0.625758	-0.862632	0.020443	0.475333	-0.796275	0.255551	3.471312	-5.904859	0.000000	0.000000	25.091230	-12.026987	10.742485	48.478438	-10.981566	-11.622673	76.735321	76.688484	-18.047735	25.274027	32.286230	-5.192504	32.866585	112.290167	86.862301	-10.195056	15.974391
1.340909	-6.861042	-12.712584	79.202746	0.315998	0.830247	0.585016	21.545665	-4.767681	14.020644	17.844400	0.311444	30.084386	-5.862312	0.000000	12.555271	5.428178	1.725676	4.456279	0.077777	25.274953	-9.812983	0.000000	0.006103	0.254841	-0.995966	0.011334	0.338939	-1.058214	0.010026	0.619621	-1.058214	0.006975	0.619621	-0.871470	0.005667	0.519672	-0.809222	0.003487	0.394749	-0.746974	0.043592	2.882816	-5.539264	0.000000	0.000000	24.322957	-12.234467	9.159737	49.992378	-10.875715	-10.726639	80.404169	76.303225	-18.887756	26.299405	34.024694	-5.649079	32.440421	115.669935	85.062219	-8.074303	16.655213
1.363636	-6.208512	-11.519668	79.192507	0.318699	0.833720	0.581957	19.574710	-4.280202	14.052768	17.007905	0.296844	29.605632	-5.728148	0.000000	11.058867	4.873567	0.936188	4.591293	0.080133	25.551674	-9.051325	0.000000	-0.012262	0.212471	-0.951552	-0.022772	0.282587	-1.011025	-0.020145	0.516602	-1.011025	-0.014014	0.516602	-0.832608	-0.011386	0.433271	-0.773136	-0.007006	0.329118	-0.713664	-0.087585	2.403515	-5.292250	0.000000	0.000000	23.400282	-12.266090	7.718167	51.276793	-10.842072	-9.904028	83.875900	76.697589	-19.191870	27.377483	35.520635	-6.003448	32.000488	118.817123	82.509977	-6.275356	17.137980
1.386364	-5.503210	-10.366878	79.247785	0.321086	0.837048	0.578810	17.614114	-3.772865	13.927028	16.194008	0.282639	29.064267	-5.539285	0.000000	9.628105	4.289501	0.239975	4.800120	0.083778	25.862243	-8.353016	0.000000	-0.022554	0.178655	-0.936520	-0.041885	0.237611	-0.995052	-0.037054	0.434382	-0.995052	-0.025777	0.434382	-0.819455	-0.020944	0.364313	-0.760922	-0.012887	0.276737	-0.702390	-0.161103	2.020981	-5.208643	0.000000	0.000000	22.444923	-12.130519	6.518355	52.348489	-10.796756	-9.048869	87.058927	77.379215	-19.269715	28.312985	36.694265	-6.264761	31.498075	121.771814	80.060368	-4.745629	17.624974
1.409091	-4.766396	-9.246202	79.366206	0.323133	0.840234	0.575683	15.679656	-3.255100	13.635465	15.413650	0.269019	28.470215	-5.260781	0.000000	8.263360	3.688821	-0.334882	5.068717	0.088466	26.181461	-7.757617	0.000000	-0.026685	0.152096	-0.949617	-0.049556	0.202287	-1.008968	-0.043840	0.369805	-1.008968	-0.030498	0.369805	-0.830915	-0.024779	0.310153	-0.771564	-0.015248	0.235596	-0.712213	-0.190605	1.720536	-5.281485	0.000000	0.000000	21.562150	-11.891201	5.553832	53.237915	-10.631872	-8.238857	89.862806	78.124751	-19.191662	28.927838	37.481953	-6.442028	30.924088	124.530497	78.235023	-3.467575	18.137887
1.431818	-4.002016	-8.146222	79.575102	0.324779	0.843293	0.572664	13.774380	-2.737223	13.144408	14.671071	0.256058	27.847559	-4.861751	0.000000	6.960466	3.079405	-0.765487	5.392657	0.094120	26.493257	-7.262852	0.000000	-0.027586	0.133380	-0.990545	-0.051230	0.177395	-1.052454	-0.045321	0.324300	-1.052454	-0.031528	0.324300	-0.866727	-0.025616	0.271988	-0.804818	-0.015763	0.206605	-0.742909	-0.197042	1.508819	-5.509113	0.000000	0.000000	20.816715	-11.596189	4.839113	54.026991	-10.324323	-7.398142	92.164309	78.689355	-19.061888	28.966849	37.874989	-6.548156	30.290274	127.039003	76.885805	-2.417783	18.426253
1.454545	-3.222062	-7.085449	79.855836	0.326016	0.846189	0.569814	11.945574	-2.208527	12.496912	13.990455	0.244179	27.216623	-4.348733	0.000000	5.740441	2.460022	-1.068894	5.755424	0.100451	26.790388	-6.890560	0.000000	-0.024358	0.123157	-1.044889	-0.045236	0.163798	-1.110194	-0.040018	0.299443	-1.110194	-0.027839	0.299443	-0.914278	-0.022619	0.251141	-0.848972	-0.013918	0.190770	-0.783667	-0.173988	1.393172	-5.811357	0.000000	0.000000	20.225021	-11.315615	4.345130	54.763445	-9.877103	-6.557794	93.906762	79.050992	-18.940966	28.390273	37.927154	-6.575505	29.662673	129.216423	75.980819	-1.798102	18.212766
1.477273	-2.434910	-6.069602	80.227557	0.326806	0.848933	0.567125	10.196632	-1.686428	11.695917	13.363864	0.233243	26.599529	-3.735421	0.000000	4.601647	1.842862	-1.241218	6.137749	0.107124	27.070385	-6.617980	0.000000	-0.020330	0.122527	-1.118915	-0.037754	0.162961	-1.188847	-0.033400	0.297912	-1.188847	-0.023235	0.297912	-0.979051	-0.018878	0.249857	-0.909119	-0.011616	0.189794	-0.839186	-0.145214	1.386051	-6.223071	0.000000	0.000000	19.767620	-11.049438	4.135585	55.498002	-9.253157	-5.708660	94.992886	79.217794	-18.817858	27.101668	37.668021	-6.533556	28.955267	131.079528	75.534431	-1.539103	17.593784
1.500000	-1.662239	-5.107947	80.672656	0.327199	0.851501	0.564599	8.544344	-1.184524	10.776334	12.788339	0.223199	26.017478	-3.033182	0.000000	3.550438	1.240605	-1.313787	6.525662	0.113894	27.340351	-6.426331	0.000000	-0.017141	0.129358	-1.209776	-0.031833	0.172046	-1.285387	-0.028162	0.314521	-1.285387	-0.019591	0.314521	-1.058554	-0.015917	0.263787	-0.982943	-0.009795	0.200375	-0.907332	-0.122439	1.463323	-6.728414	0.000000	0.000000	19.372759	-10.728822	4.150918	56.155134	-8.414281	-4.988603	95.502390	79.326313	-18.644502	25.201065	37.166634	-6.459541	28.152051	132.648121	75.539539	-1.553641	16.811535
1.522727	-0.909884	-4.209495	81.184881	0.327225	0.853850	0.562190	7.000441	-0.700098	9.761327	12.261126	0.213997	25.494620	-2.262689	0.000000	2.572623	0.651901	-1.271222	6.874292	0.119979	27.590723	-6.313773	0.000000	-0.013209	0.143855	-1.316047	-0.024531	0.191328	-1.398300	-0.021702	0.349770	-1.398300	-0.015097	0.349770	-1.151541	-0.012266	0.293350	-1.069288	-0.007548	0.222832	-0.987035	-0.094353	1.627320	-7.319457	0.000000	0.000000	18.969119	-10.303768	4.450688	56.628002	-7.394911	-4.432372	95.604561	79.382198	-18.386001	22.771776	36.465842	-6.383457	27.215118	133.966822	75.976661	-1.681554	16.146288
1.545455	-0.211471	-3.379556	81.739850	0.326962	0.855934	0.559931	5.583521	-0.254355	8.697188	11.785461	0.205695	25.062029	-1.451068	0.000000	1.681377	0.100726	-1.159060	7.191549	0.125516	27.833709	-6.243049	0.000000	-0.008570	0.158300	-1.417720	-0.015915	0.210539	-1.506327	-0.014079	0.384891	-1.506327	-0.009794	0.384891	-1.240505	-0.007958	0.322806	-1.151897	-0.004897	0.245207	-1.063290	-0.061213	1.790725	-7.884931	0.000000	0.000000	18.558471	-9.723845	4.713374	56.824366	-6.281277	-4.139171	95.576620	79.566470	-18.010623	20.152064	35.682856	-6.298563	26.196762	135.034058	76.843795	-1.673377	15.807532
